# xmcd
#
# Track frame offsets:
#	150
#	14420
#	34668
#	52722
#	66458
#	88828
#	102914
#	129480
#	154361
#	167794
#	183425
#	197448
#
# Disc length: 2911 seconds
#
# Revision: 1
# Processed by: cddbd v1.4PL0 Copyright (c) Steve Scherf et al.
# Submitted via: audiograbber 1.82.02
#
DISCID=9d0b5d0c
DTITLE=John Lisi and Delta Funk - Preachin' To The Choir
DYEAR=2003
DGENRE=Funk
TTITLE0=C'mon Down
TTITLE1=Everybody Sing Yeah
TTITLE2=Get Your Tongue Outta My Mouth
TTITLE3=Beer Soaked Couch Slug
TTITLE4=Pretty Thang
TTITLE5=Oh-So-Sad
TTITLE6=Pain Pain Go Away
TTITLE7=Slow Down Sugar
TTITLE8=My Daddy's Words
TTITLE9=Dirty Money
TTITLE10=I'll Make You An Offer
TTITLE11=If I Had Religion
EXTD=New Orleans Artist
EXTT0=
EXTT1=
EXTT2=(I'm kissing You Goodbye)
EXTT3=
EXTT4=
EXTT5=
EXTT6=
EXTT7=
EXTT8=
EXTT9=
EXTT10=
EXTT11=
PLAYORDER=
